<?xml version="1.0" encoding="utf-8"?>
<!-- Generator: Adobe Illustrator 18.1.0, SVG Export Plug-In . SVG Version: 6.00 Build 0)  -->
<!DOCTYPE svg PUBLIC "-//W3C//DTD SVG 1.1//EN" "http://www.w3.org/Graphics/SVG/1.1/DTD/svg11.dtd">
<svg version="1.1" id="Layer_1" xmlns="http://www.w3.org/2000/svg" xmlns:xlink="http://www.w3.org/1999/xlink" x="0px" y="0px"
	 viewBox="0 0 1100 1100" enable-background="new 0 0 1100 1100" xml:space="preserve">
<g>
	<g>
		<g>
			<path fill="#FFFFFF" d="M978.6,407.1v35.7h-35.7v35.7h-35.7v464.3h35.7v35.7h35.7v35.7h35.7V407.1H978.6z M942.8,978.6h-35.7
				v-35.7H192.9v35.7h-35.7v35.7h-35.7v35.7h857.1v-35.7h-35.7L942.8,978.6L942.8,978.6z M157.2,978.6v-35.7h35.7V478.5h-35.7v-35.7
				h-35.7v-35.7H85.7v607.1h35.7v-35.7h35.8V978.6z M157.2,442.8h35.7v35.7h714.3v-35.7h35.7v-35.7h35.7v-35.7h-71.4l-280-214.9
				c5.9-10.4,9.6-22.3,9.6-35.1c0-39.4-32-71.4-71.4-71.4S494,82,494,121.4c0,6,0.9,11.7,2.3,17.3L192.9,371.4h-71.4v35.7h35.7
				V442.8z M507.9,163.5c13,17.7,33.8,29.3,57.4,29.3c17,0,32.4-6.2,44.6-16.1l261.5,194.7H228.6L507.9,163.5z"/>
		</g>
	</g>
	<g>
		<g>
			<polyline fill="none" stroke="#FFFFFF" stroke-width="6" stroke-miterlimit="10" points="532.6,545.8 613.9,725.4 678,865.7 
				549.9,865.7 421.9,865.7 485.9,725.4 567.9,545.8 			"/>
			<g>
				<g>
					<path fill="#FFFFFF" stroke="#FFFFFF" stroke-linecap="round" stroke-linejoin="round" stroke-miterlimit="10" d="M614.1,725.4
						l-64-140.2l-64,140.2l-64,140.3h128h128L614.1,725.4z M527.3,741.4c-3.2,0.7-5.4,1.6-6.6,2.8c-1.8,1.8-2.7,4.9-2.7,9.4v13.6
						c0,4.4-0.6,7.8-1.8,10.4c-2,4.3-5.9,7.8-11.7,10.5c5.3,2.1,8.8,4.6,10.6,7.5s2.8,6.8,2.8,11.8v14.8c0,4.3,1,7.5,3.1,9.4
						c1.2,1.1,3.2,2.1,6.1,3v9.4l-4.2-0.1c-5.6-0.2-10.5-1.8-14.6-5c-4.2-3.2-6.3-7.8-6.3-13.9v-18.3c0-4.9-1.5-8.7-4.5-11.3
						c-1.8-1.6-4.4-2.9-7.7-3.8v-7.1c3.8-1.3,6.5-2.7,8-4.3c2.8-2.7,4.2-6.8,4.2-12.4v-15.7c0-2,0.3-4.1,1-6.3c1.2-3.8,3.2-6.8,6-9
						c2.6-2,5.6-3.4,9.1-4c2.1-0.4,5.1-0.7,9.1-0.7v9.3H527.3z M610.1,791.5c-3.3,0.9-5.8,2.1-7.6,3.6c-3.1,2.7-4.6,6.5-4.6,11.5
						V825c0,5.9-2.1,10.5-6.2,13.8c-4.1,3.3-9.1,5-14.9,5.1l-4.2,0.1v-9.4c2.9-0.9,5-1.9,6.2-3c2-2,3-5.1,3.1-9.3v-14.8
						c0-5.5,1.1-9.6,3.2-12.3c2.2-2.7,5.6-5,10.3-7c-5.1-2.5-8.7-5.3-10.6-8.5s-2.9-7.3-2.9-12.4v-13.6c0-4.3-0.7-7.3-2.1-8.8
						c-1.4-1.6-3.8-2.7-7.2-3.4v-9.4c3.9,0,6.9,0.3,9,0.7c3.5,0.7,6.5,2,9.2,4c2.6,2,4.4,4.5,5.5,7.5c1,3,1.5,5.6,1.5,7.8v15.7
						c0,5.6,1.3,9.7,3.8,12.3c1.6,1.6,4.4,3,8.4,4.3L610.1,791.5L610.1,791.5z"/>
				</g>
			</g>
		</g>
	</g>
</g>
</svg>
